<svg width="240" height="303" viewBox="0 0 240 303" fill="none" xmlns="http://www.w3.org/2000/svg">
<circle cx="158.5" cy="158.5" r="158.5" transform="matrix(-0.929154 -0.369694 -0.369694 0.929154 87.7346 8.19287)" fill="url(#paint0_linear_601_343)"/>
<mask id="mask0_601_343" style="mask-type:luminance" maskUnits="userSpaceOnUse" x="-38" y="-144" width="242" height="242">
<path d="M38.8723 89.2567C-22.9131 64.6734 -53.0713 -5.34227 -28.488 -67.1276C-3.90472 -128.913 66.1109 -159.071 127.896 -134.488C189.682 -109.905 219.84 -39.889 195.257 21.8963C170.673 83.6817 100.658 113.84 38.8723 89.2567Z" fill="white"/>
</mask>
<g mask="url(#mask0_601_343)">
<path d="M148.496 -183.566L250.264 52.7001L241.305 56.5591L139.537 -179.707L148.496 -183.566Z" fill="#001379"/>
<path d="M130.563 -175.839L232.331 60.4272L223.372 64.2862L121.604 -171.98L130.563 -175.839Z" fill="#001379"/>
<path d="M112.629 -168.117L214.397 68.1485L205.438 72.0075L103.669 -164.258L112.629 -168.117Z" fill="#001379"/>
<path d="M94.6974 -160.39L196.466 75.8756L187.506 79.7346L85.7383 -156.531L94.6974 -160.39Z" fill="#001379"/>
<path d="M76.7594 -152.668L178.528 83.5977L169.568 87.4567L67.8003 -148.809L76.7594 -152.668Z" fill="#001379"/>
<path d="M58.8313 -144.942L160.599 91.324L151.64 95.183L49.8722 -141.083L58.8313 -144.942Z" fill="#001379"/>
<path d="M40.8969 -137.219L142.665 99.0469L133.706 102.906L31.9378 -133.36L40.8969 -137.219Z" fill="#001379"/>
<path d="M22.9619 -129.493L124.73 106.773L115.771 110.632L14.0028 -125.634L22.9619 -129.493Z" fill="#001379"/>
<path d="M5.02748 -121.771L106.796 114.495L97.8366 118.354L-3.93163 -117.912L5.02748 -121.771Z" fill="#001379"/>
<path d="M-12.9026 -114.044L88.8655 122.222L79.9064 126.081L-21.8617 -110.185L-12.9026 -114.044Z" fill="#001379"/>
<path d="M-30.8394 -106.324L70.9288 129.942L61.9697 133.801L-39.7985 -102.465L-30.8394 -106.324Z" fill="#001379"/>
<path d="M-48.7714 -98.5943L52.9968 137.672L44.0377 141.531L-57.7305 -94.7353L-48.7714 -98.5943Z" fill="#001379"/>
<path d="M-66.7007 -90.8747L35.0674 145.391L26.1083 149.25L-75.6598 -87.0156L-66.7007 -90.8747Z" fill="#001379"/>
</g>
<defs>
<linearGradient id="paint0_linear_601_343" x1="158.5" y1="0" x2="158.5" y2="317" gradientUnits="userSpaceOnUse">
<stop stop-color="#003ACE"/>
<stop offset="1" stop-color="#016AE2"/>
</linearGradient>
</defs>
</svg>
